HIERARCHY
ROOT Model
{
	OFFSET 0 0 0
	CHANNELS 6 Xposition Yposition Zposition Zrotation Xrotation Yrotation
	JOINT Model1
	{
		OFFSET 0 -2.25479 2.99384
		CHANNELS 3 Zrotation Xrotation Yrotation
		JOINT Model2
		{
			OFFSET 12.111 0 0
			CHANNELS 3 Zrotation Xrotation Yrotation
			JOINT Model3
			{
				OFFSET 11.5502 0 0
				CHANNELS 3 Zrotation Xrotation Yrotation
				JOINT Model4
				{
					OFFSET 11.781 0 0
					CHANNELS 3 Zrotation Xrotation Yrotation
					JOINT Model5
					{
						OFFSET 20.0601 0 0
						CHANNELS 3 Zrotation Xrotation Yrotation
						JOINT Model6
						{
							OFFSET 11.1962 0 0
							CHANNELS 3 Zrotation Xrotation Yrotation
							End Site
							{
								OFFSET 0 0 0
							}
						}
					}
					JOINT Model7
					{
						OFFSET 10.8223 0.417534 3.51114
						CHANNELS 3 Zrotation Xrotation Yrotation
						JOINT Model8
						{
							OFFSET -6.07944 0 0
							CHANNELS 3 Zrotation Xrotation Yrotation
							JOINT Model9
							{
								OFFSET -0.277405 10.39 -0.051239
								CHANNELS 3 Zrotation Xrotation Yrotation
								JOINT Model10
								{
									OFFSET -3.43909 -0.282043 1.86679
									CHANNELS 3 Zrotation Xrotation Yrotation
									JOINT Model11
									{
										OFFSET 13.0269 0 0
										CHANNELS 3 Zrotation Xrotation Yrotation
										JOINT Model12
										{
											OFFSET 10.8866 0 0
											CHANNELS 3 Zrotation Xrotation Yrotation
											JOINT Model13
											{
												OFFSET 16.7317 0 0
												CHANNELS 3 Zrotation Xrotation Yrotation
												JOINT Model14
												{
													OFFSET 11.8292 0 0
													CHANNELS 3 Zrotation Xrotation Yrotation
													JOINT Model15
													{
														OFFSET 4.82751 -3.73566 -0.836517
														CHANNELS 3 Zrotation Xrotation Yrotation
														JOINT Model16
														{
															OFFSET 3.75311 -0.0582886 -0.0186462
															CHANNELS 3 Zrotation Xrotation Yrotation
															JOINT Model17
															{
																OFFSET 2.88689 0.0192337 0.014801
																CHANNELS 3 Zrotation Xrotation Yrotation
																End Site
																{
																	OFFSET 0 0 0
																}
															}
														}
													}
													JOINT Model18
													{
														OFFSET 9.72197 -3.06458 0.23877
														CHANNELS 3 Zrotation Xrotation Yrotation
														JOINT Model19
														{
															OFFSET 4.61131 0 0
															CHANNELS 3 Zrotation Xrotation Yrotation
															JOINT Model20
															{
																OFFSET 2.8969 -7.62939e-006 0
																CHANNELS 3 Zrotation Xrotation Yrotation
																End Site
																{
																	OFFSET 0 0 0
																}
															}
														}
													}
													JOINT Model21
													{
														OFFSET 9.54431 -0.745064 0.588928
														CHANNELS 3 Zrotation Xrotation Yrotation
														JOINT Model22
														{
															OFFSET 5.33978 0 0
															CHANNELS 3 Zrotation Xrotation Yrotation
															JOINT Model23
															{
																OFFSET 3.03619 7.62939e-006 0
																CHANNELS 3 Zrotation Xrotation Yrotation
																End Site
																{
																	OFFSET 0 0 0
																}
															}
														}
													}
													JOINT Model24
													{
														OFFSET 9.47758 1.51286 0.485107
														CHANNELS 3 Zrotation Xrotation Yrotation
														JOINT Model25
														{
															OFFSET 4.96136 7.62939e-006 0
															CHANNELS 3 Zrotation Xrotation Yrotation
															JOINT Model26
															{
																OFFSET 2.51965 0 0
																CHANNELS 3 Zrotation Xrotation Yrotation
																End Site
																{
																	OFFSET 0 0 0
																}
															}
														}
													}
													JOINT Model27
													{
														OFFSET 9.34247 3.34117 -0.239288
														CHANNELS 3 Zrotation Xrotation Yrotation
														JOINT Model28
														{
															OFFSET 3.28259 2.28882e-005 0
															CHANNELS 3 Zrotation Xrotation Yrotation
															JOINT Model29
															{
																OFFSET 2.1292 0 0
																CHANNELS 3 Zrotation Xrotation Yrotation
																End Site
																{
																	OFFSET 0 0 0
																}
															}
														}
													}
												}
											}
										}
									}
								}
							}
						}
					}
					JOINT Model30
					{
						OFFSET 10.8223 0.4179 -3.51108
						CHANNELS 3 Zrotation Xrotation Yrotation
						JOINT Model31
						{
							OFFSET 6.07944 0 0
							CHANNELS 3 Zrotation Xrotation Yrotation
							JOINT Model32
							{
								OFFSET 0.277405 -10.39 0.051239
								CHANNELS 3 Zrotation Xrotation Yrotation
								JOINT Model33
								{
									OFFSET 3.43909 0.282043 -1.86679
									CHANNELS 3 Zrotation Xrotation Yrotation
									JOINT Model34
									{
										OFFSET -13.0269 0 0
										CHANNELS 3 Zrotation Xrotation Yrotation
										JOINT Model35
										{
											OFFSET -10.8866 0 0
											CHANNELS 3 Zrotation Xrotation Yrotation
											JOINT Model36
											{
												OFFSET -16.7317 0 0
												CHANNELS 3 Zrotation Xrotation Yrotation
												JOINT Model37
												{
													OFFSET -11.8292 0 0
													CHANNELS 3 Zrotation Xrotation Yrotation
													JOINT Model38
													{
														OFFSET -4.82751 3.73566 0.836517
														CHANNELS 3 Zrotation Xrotation Yrotation
														JOINT Model39
														{
															OFFSET -3.75311 0.0582886 0.0186462
															CHANNELS 3 Zrotation Xrotation Yrotation
															JOINT Model40
															{
																OFFSET -2.88687 -0.0192337 -0.014801
																CHANNELS 3 Zrotation Xrotation Yrotation
																End Site
																{
																	OFFSET 0 0 0
																}
															}
														}
													}
													JOINT Model41
													{
														OFFSET -9.72198 3.06459 -0.23877
														CHANNELS 3 Zrotation Xrotation Yrotation
														JOINT Model42
														{
															OFFSET -4.6113 0 0
															CHANNELS 3 Zrotation Xrotation Yrotation
															JOINT Model43
															{
																OFFSET -2.89691 0 0
																CHANNELS 3 Zrotation Xrotation Yrotation
																End Site
																{
																	OFFSET 0 0 0
																}
															}
														}
													}
													JOINT Model44
													{
														OFFSET -9.54431 0.745064 -0.588928
														CHANNELS 3 Zrotation Xrotation Yrotation
														JOINT Model45
														{
															OFFSET -5.33978 0 0
															CHANNELS 3 Zrotation Xrotation Yrotation
															JOINT Model46
															{
																OFFSET -3.03619 -1.52588e-005 0
																CHANNELS 3 Zrotation Xrotation Yrotation
																End Site
																{
																	OFFSET 0 0 0
																}
															}
														}
													}
													JOINT Model47
													{
														OFFSET -9.4776 -1.51286 -0.485107
														CHANNELS 3 Zrotation Xrotation Yrotation
														JOINT Model48
														{
															OFFSET -4.96136 -1.52588e-005 0
															CHANNELS 3 Zrotation Xrotation Yrotation
															JOINT Model49
															{
																OFFSET -2.51965 0 0
																CHANNELS 3 Zrotation Xrotation Yrotation
																End Site
																{
																	OFFSET 0 0 0
																}
															}
														}
													}
													JOINT Model50
													{
														OFFSET -9.34247 -3.34118 0.239288
														CHANNELS 3 Zrotation Xrotation Yrotation
														JOINT Model51
														{
															OFFSET -3.28259 -2.28882e-005 0
															CHANNELS 3 Zrotation Xrotation Yrotation
															JOINT Model52
															{
																OFFSET -2.12921 0 0
																CHANNELS 3 Zrotation Xrotation Yrotation
																End Site
																{
																	OFFSET 0 0 0
																}
															}
														}
													}
												}
											}
										}
									}
								}
							}
						}
					}
				}
			}
		}
	}
	JOINT Model53
	{
		OFFSET 4.38025 -2.14632 -1.11517
		CHANNELS 3 Zrotation Xrotation Yrotation
		JOINT Model54
		{
			OFFSET 0 0 4.94998
			CHANNELS 3 Zrotation Xrotation Yrotation
			JOINT Model55
			{
				OFFSET 18.5642 0 0
				CHANNELS 3 Zrotation Xrotation Yrotation
				JOINT Model56
				{
					OFFSET 21.2884 0 0
					CHANNELS 3 Zrotation Xrotation Yrotation
					JOINT Model57
					{
						OFFSET 30.261 0 0
						CHANNELS 3 Zrotation Xrotation Yrotation
						JOINT Model58
						{
							OFFSET 11.7259 0 0
							CHANNELS 3 Zrotation Xrotation Yrotation
							JOINT Model59
							{
								OFFSET 10.682 0 0
								CHANNELS 3 Zrotation Xrotation Yrotation
								End Site
								{
									OFFSET 0 0 0
								}
							}
						}
					}
				}
			}
		}
	}
	JOINT Model60
	{
		OFFSET -4.38025 -2.14632 -1.11517
		CHANNELS 3 Zrotation Xrotation Yrotation
		JOINT Model61
		{
			OFFSET 0 0 -4.94998
			CHANNELS 3 Zrotation Xrotation Yrotation
			JOINT Model62
			{
				OFFSET -18.5642 0 0
				CHANNELS 3 Zrotation Xrotation Yrotation
				JOINT Model63
				{
					OFFSET -21.2884 0 0
					CHANNELS 3 Zrotation Xrotation Yrotation
					JOINT Model64
					{
						OFFSET -30.261 0 0
						CHANNELS 3 Zrotation Xrotation Yrotation
						JOINT Model65
						{
							OFFSET -11.7259 0 0
							CHANNELS 3 Zrotation Xrotation Yrotation
							JOINT Model66
							{
								OFFSET -10.682 0 0
								CHANNELS 3 Zrotation Xrotation Yrotation
								End Site
								{
									OFFSET 0 0 0
								}
							}
						}
					}
				}
			}
		}
	}
}
MOTION
Frames: 4
Frame Time: 0.033333
-651.541 173.584 -738.6 96.5513 -50.7299 97.7608 -180 4.29621e-031 -90 0.306501 -0.0815164 0.0217399 0.613032 -0.163353 0.0439157 0.613032 -0.162915 0.043911 0.856195 0.957291 -0.944367 15.3212 0.992027 4.07329 120.092 75.5343 58.4939 14.5002 1.3157 -1.85959 -167.277 84.4999 48.8109 167.636 -10.7004 -29.2883 3.32522e-006 14.6116 3.09461e-005 0.0666226 -2.75766 1.13415 -1.99978e-007 -4.07331 -4.68106e-007 1.26815 0.0382868 3.45849 -72.0648 39.0385 39.3397 33.3638 2.10362 14.835 0.588947 0.308273 6.35287 -99.6409 81.413 100.35 -0.0181409 2.77908e-005 -0.117315 -0.124139 0.00241114 -0.799296 -79.8382 79.5773 80.5374 -0.000225786 -0.000220911 2.21943e-005 -0.000956239 0.000122911 -2.73208e-005 -66.7416 80.4058 67.2171 -0.000437142 1.59575e-005 -2.73205e-005 -0.000136617 -0.000109275 -5.46412e-005 -6.42159 81.2158 8.01779 -0.000218577 1.69148e-005 0.000212141 0.000901569 -0.000184793 -0.000218565 -59.9282 75.5373 58.5147 13.6374 6.05353 -0.829444 -167.277 84.4999 48.8109 168.977 -19.6116 -21.4245 7.13203e-006 -0.337667 2.90953e-005 -1.60313 8.41726 -0.0941796 -4.9879e-006 12.6526 2.08948e-006 1.544 -0.0655383 -4.86095 -72.0648 39.0385 39.3397 33.3638 2.10361 14.835 0.588946 0.308273 6.35287 -99.6409 81.413 100.35 -0.0181409 3.00989e-005 -0.117315 -0.124139 0.00241116 -0.799296 -79.8382 79.5773 80.5374 -0.000260633 -0.000218546 2.35664e-005 -0.000956209 0.000123023 -2.73261e-005 -66.7416 80.4058 67.2171 -0.000437119 1.4902e-005 -2.73258e-005 -0.000136586 -0.000109255 -5.46483e-005 -6.42159 81.2158 8.01779 -0.000218552 1.96012e-005 0.000212288 0.000901602 -0.000191215 -0.000218578 0.000811311 0.56661 89.91 -13.9545 -3.2262 -11.2015 9.34099e-007 2.51117 -1.50836e-008 39.0012 -0.645575 -1.55147 -3.24347e-008 -1.04222 -2.16564e-008 -71.2583 -6.00117 1.98612 -35.4947 4.4995e-007 1.90958e-007 -180 -0.566579 -90.09 -15.3276 -4.79761 -7.64898 -8.23806e-007 -2.32612 -2.79001e-008 35.5212 -0.252892 -1.89226 3.78252e-007 -0.446658 -9.62739e-009 -65.5582 -5.41344 2.23211 -35.4947 1.28062e-007 -2.51266e-008 
-651.546 173.594 -738.617 96.3893 -50.7336 97.6763 -180 4.29621e-031 -90 0.284252 -0.0800255 0.0356657 0.568553 -0.16031 0.071728 0.568553 -0.159873 0.0717237 0.696813 0.894684 -1.02625 15.6033 0.925705 4.12855 120.092 75.5343 58.4939 14.4165 1.24127 -1.8585 -167.277 84.4999 48.8109 167.445 -11.0214 -29.6301 3.58656e-006 14.1424 3.08812e-005 0.0742411 -2.31805 1.45334 -1.94585e-007 -3.4143 -4.67754e-007 1.78338 0.0552687 3.54992 -72.0648 39.0385 39.3397 33.3638 2.10362 14.835 0.588947 0.308273 6.35287 -99.6409 81.413 100.35 -0.0181409 2.77908e-005 -0.117315 -0.124139 0.00241114 -0.799296 -79.8382 79.5773 80.5374 -0.000225786 -0.000220911 2.21943e-005 -0.000956239 0.000122911 -2.73208e-005 -66.7416 80.4058 67.2171 -0.000437142 1.59575e-005 -2.73205e-005 -0.000136617 -0.000109275 -5.46412e-005 -6.42159 81.2158 8.01779 -0.000218577 1.69148e-005 0.000212141 0.000901569 -0.000184793 -0.000218565 -59.9282 75.5373 58.5147 13.8405 5.86211 -0.908045 -167.277 84.4999 48.8109 168.904 -19.5353 -21.1578 7.13013e-006 -0.33393 2.90953e-005 -1.5993 8.51537 -0.0958914 -4.99341e-006 12.7999 2.0907e-006 1.94268 -0.0832251 -4.90576 -72.0648 39.0385 39.3397 33.3638 2.10361 14.835 0.588946 0.308273 6.35287 -99.6409 81.413 100.35 -0.0181409 3.00989e-005 -0.117315 -0.124139 0.00241116 -0.799296 -79.8382 79.5773 80.5374 -0.000260633 -0.000218546 2.35664e-005 -0.000956209 0.000123023 -2.73261e-005 -66.7416 80.4058 67.2171 -0.000437119 1.4902e-005 -2.73258e-005 -0.000136586 -0.000109255 -5.46483e-005 -6.42159 81.2158 8.01779 -0.000218552 1.96012e-005 0.000212288 0.000901602 -0.000191215 -0.000218578 0.000811311 0.56661 89.91 -14.1601 -3.48335 -11.4824 9.34036e-007 2.27183 -1.5081e-008 39.0239 -0.410251 -1.46255 -3.23012e-008 -0.689108 -2.16544e-008 -71.2694 -5.79015 1.87896 -35.4947 4.51954e-007 1.86757e-007 -180 -0.566579 -90.09 -15.3732 -4.60108 -7.68144 -8.23654e-007 -2.01537 -2.78944e-008 35.4653 -0.394764 -1.47105 3.78217e-007 -0.659334 -9.62774e-009 -65.5228 -5.35904 2.20474 -35.4947 1.50323e-007 2.47931e-007 
-651.542 173.592 -738.629 96.2761 -50.7623 97.6048 -180 4.29621e-031 -90 0.276069 -0.0665633 0.0279755 0.552169 -0.133428 0.0562714 0.552169 -0.132991 0.0562672 0.473695 0.870447 -0.861626 15.7637 0.934644 4.03909 120.092 75.5343 58.4939 14.6044 1.19697 -1.89877 -167.277 84.4999 48.8109 167.362 -11.1987 -29.6486 3.75078e-006 13.8466 3.08415e-005 0.0753105 -1.9521 1.68464 -1.901e-007 -2.86561 -4.67509e-007 2.90144 0.085825 3.38794 -72.0648 39.0385 39.3397 33.3638 2.10362 14.835 0.588947 0.308273 6.35287 -99.6409 81.413 100.35 -0.0181409 2.77908e-005 -0.117315 -0.124139 0.00241114 -0.799296 -79.8382 79.5773 80.5374 -0.000225786 -0.000220911 2.21943e-005 -0.000956239 0.000122911 -2.73208e-005 -66.7416 80.4058 67.2171 -0.000437142 1.59575e-005 -2.73205e-005 -0.000136617 -0.000109275 -5.46412e-005 -6.42159 81.2158 8.01779 -0.000218577 1.69148e-005 0.000212141 0.000901569 -0.000184793 -0.000218565 -59.9282 75.5373 58.5147 13.6722 5.62908 -0.915195 -167.277 84.4999 48.8109 168.672 -19.4909 -21.2426 7.12963e-006 -0.332934 2.90953e-005 -1.59611 8.5979 -0.0973303 -4.99804e-006 12.9237 2.09173e-006 2.15517 -0.0905979 -4.81382 -72.0648 39.0385 39.3397 33.3638 2.10361 14.835 0.588946 0.308273 6.35287 -99.6409 81.413 100.35 -0.0181409 3.00989e-005 -0.117315 -0.124139 0.00241116 -0.799296 -79.8382 79.5773 80.5374 -0.000260633 -0.000218546 2.35664e-005 -0.000956209 0.000123023 -2.73261e-005 -66.7416 80.4058 67.2171 -0.000437119 1.4902e-005 -2.73258e-005 -0.000136586 -0.000109255 -5.46483e-005 -6.42159 81.2158 8.01779 -0.000218552 1.96012e-005 0.000212288 0.000901602 -0.000191215 -0.000218578 0.000811311 0.56661 89.91 -14.2478 -3.45011 -11.4522 9.3404e-007 2.28651 -1.50812e-008 39.0519 -0.45576 -1.51474 -3.23271e-008 -0.757466 -2.16547e-008 -71.2651 -5.84542 1.90715 -35.4947 4.53876e-007 1.80837e-007 -180 -0.566579 -90.09 -15.456 -4.58068 -7.60607 -8.23667e-007 -2.04161 -2.78949e-008 35.463 -0.413619 -1.59303 3.78212e-007 -0.687663 -9.62779e-009 -65.504 -5.42034 2.24131 -35.4947 2.18616e-007 1.05813e-006 
-651.517 173.582 -738.634 96.2894 -50.7593 97.5587 -180 4.29621e-031 -90 0.295173 -0.0575108 -0.0168772 0.590328 -0.115545 -0.0334579 0.590328 -0.115108 -0.0334624 0.0753304 0.787045 -0.289707 16.0529 0.954666 3.61903 120.092 75.5343 58.4939 15.3275 1.09479 -2.0405 -167.277 84.4999 48.8109 167.422 -11.1181 -28.9051 3.78476e-006 13.7853 3.08333e-005 0.0643213 -1.93225 1.45013 -1.89853e-007 -2.83541 -4.67496e-007 3.51156 0.104348 3.40309 -72.0648 39.0385 39.3397 33.3638 2.10362 14.835 0.588947 0.308273 6.35287 -99.6409 81.413 100.35 -0.0181409 2.77908e-005 -0.117315 -0.124139 0.00241114 -0.799296 -79.8382 79.5773 80.5374 -0.000225786 -0.000220911 2.21943e-005 -0.000956239 0.000122911 -2.73208e-005 -66.7416 80.4058 67.2171 -0.000437142 1.59575e-005 -2.73205e-005 -0.000136617 -0.000109275 -5.46412e-005 -6.42159 81.2158 8.01779 -0.000218577 1.69148e-005 0.000212141 0.000901569 -0.000184793 -0.000218565 -59.9282 75.5373 58.5147 13.1795 5.25216 -0.882359 -167.277 84.4999 48.8109 168.206 -19.4259 -21.5361 7.12934e-006 -0.332369 2.90953e-005 -1.59354 8.66523 -0.0984948 -5.00183e-006 13.0248 2.09258e-006 2.14953 -0.0902627 -4.8086 -72.0648 39.0385 39.3397 33.3638 2.10361 14.835 0.588946 0.308273 6.35287 -99.6409 81.413 100.35 -0.0181409 3.00989e-005 -0.117315 -0.124139 0.00241116 -0.799296 -79.8382 79.5773 80.5374 -0.000260633 -0.000218546 2.35664e-005 -0.000956209 0.000123023 -2.73261e-005 -66.7416 80.4058 67.2171 -0.000437119 1.4902e-005 -2.73258e-005 -0.000136586 -0.000109255 -5.46483e-005 -6.42159 81.2158 8.01779 -0.000218552 1.96012e-005 0.000212288 0.000901602 -0.000191215 -0.000218578 0.000811311 0.56661 89.91 -14.1819 -3.27795 -11.212 9.3407e-007 2.40073 -1.50824e-008 39.0506 -0.620336 -1.62469 -3.24204e-008 -1.00448 -2.16561e-008 -71.2502 -6.00247 1.98757 -35.4947 4.55717e-007 1.73274e-007 -180 -0.566579 -90.09 -15.5054 -4.7386 -7.6199 -8.23781e-007 -2.27629 -2.78992e-008 35.5265 -0.314676 -1.93845 3.78237e-007 -0.539415 -9.62752e-009 -65.5329 -5.49546 2.28106 -35.4947 3.31075e-007 2.3837e-006 
